PathFileType	4	(X/Y/Z)	Walk4.trc
DataRate	CameraRate	NumFrames	NumMarkers	Units	OrigDataRate	OrigDataStartFrame	OrigNumFrames
200.000000	200.000000	5	58	mm	200.000000	362	550
Frame#	Times		RBHD		C7		RASI		RACR1		RUA1		RElbow		RFA1		RWRU		RCAR		LFA1		RTH2		RTH3		RBack		LTH2		LElbowM		RLFC		RTB1		RTB3		LTH3		RTH1		RTH4		RMT1		RMT5		LElbow		RTB2		LTH4		LACR1		RTB4		LWRR		LWRU		RMMAL		CLAV		LASI		LPSI		LTB1		LBHD		RPSI		LLFC		T10		RWRR		LFHD		LTB3		LCAR		LTH1		LTB4		RFHD		LMT1		LCAL		RToe		LMMAL		RElbowM		LMT5		RLMAL		LLMAL		LTB2		LToe		LUA1		RCAL
			X1	Y1	Z1	X2	Y2	Z2	X3	Y3	Z3	X4	Y4	Z4	X5	Y5	Z5	X6	Y6	Z6	X7	Y7	Z7	X8	Y8	Z8	X9	Y9	Z9	X10	Y10	Z10	X11	Y11	Z11	X12	Y12	Z12	X13	Y13	Z13	X14	Y14	Z14	X15	Y15	Z15	X16	Y16	Z16	X17	Y17	Z17	X18	Y18	Z18	X19	Y19	Z19	X20	Y20	Z20	X21	Y21	Z21	X22	Y22	Z22	X23	Y23	Z23	X24	Y24	Z24	X25	Y25	Z25	X26	Y26	Z26	X27	Y27	Z27	X28	Y28	Z28	X29	Y29	Z29	X30	Y30	Z30	X31	Y31	Z31	X32	Y32	Z32	X33	Y33	Z33	X34	Y34	Z34	X35	Y35	Z35	X36	Y36	Z36	X37	Y37	Z37	X38	Y38	Z38	X39	Y39	Z39	X40	Y40	Z40	X41	Y41	Z41	X42	Y42	Z42	X43	Y43	Z43	X44	Y44	Z44	X45	Y45	Z45	X46	Y46	Z46	X47	Y47	Z47	X48	Y48	Z48	X49	Y49	Z49	X50	Y50	Z50	X51	Y51	Z51	X52	Y52	Z52	X53	Y53	Z53	X54	Y54	Z54	X55	Y55	Z55	X56	Y56	Z56	X57	Y57	Z57	X58	Y58	Z58

362	1.81	222.17	1562.7	351.6	190.06	1422.7	296.21	265.71	915.56	449.85	264.63	1384.2	438.9	247.83	1207.3	544.39	236.12	1082.6	597.65	357.27	988.17	599.77	429.9	884.8	579	497.26	876.45	575.05	86.243	944.62	-2.8017	216.08	620.11	449.23	125.8	540.63	464.17	123.68	1334.6	403.23	384.45	680.95	139.91	55.769	1094.3	127.08	88.389	442.55	449.26	59.375	342.51	366.08	-68.099	201.49	365.49	361.07	568.3	127.05	173.47	722.7	487.67	150.35	630.04	479.2	-86.42	39.912	311.52	-107.51	35.196	399.54	63.327	1093.9	47.781	-9.8357	276.34	440.32	321.28	647.47	108.58	207.05	1397.6	119.19	-1.0596	272.92	366.13	106.71	823.54	25.022	28.336	838.92	5.0559	-151.05	153.01	320.89	322.6	1338.1	274.31	281.77	927.76	144.09	101.7	943.52	228.61	463.48	385.07	210.61	224.06	1558.1	213.22	92.542	944.83	332.98	404.91	463.57	147.31	89.892	1113.8	292.5	475.18	934.19	538.69	406.85	1578.3	238.93	471.52	200.01	223.93	76.697	775.12	-20.136	279.11	735.79	101.83	466.25	292.1	217.29	407.47	1586.7	319.68	580.23	42.298	273.42	373.73	28.933	247.26	-36.321	24.714	327.42	448.07	92.489	284.43	211.62	1035.5	511.61	554.74	33.136	189.82	-177.76	152.95	408.87	417.22	69.927	200.18	441.18	286.46	150.06	622.74	49.638	257.63	121.21	1209.8	45.976	-246.4	142.44	367.96
363	1.815	229.04	1563.3	350.55	197.3	1423.2	295.45	271.92	915.85	449.74	271.82	1385	438.19	254.31	1207.9	543.39	241.74	1083.5	596.74	362.19	987.69	599.04	433.67	883.66	579.02	501.46	874.53	574.89	93.883	944.8	-3.094	225.24	619.88	448.9	135.99	539.61	464.08	130.77	1335.5	402.57	391.32	682.43	139.29	63.42	1094.2	126.82	99.245	441.54	449.64	69.015	341.94	367.01	-60.74	203.31	366.49	368.64	569.64	126.73	181.22	722.37	486.9	159.2	629.42	478.86	-85.741	40.119	311.58	-106.07	35.836	399.24	70.767	1094	47.449	-1.9998	277.87	441.54	328.36	648.4	108.06	214.3	1398.1	118.46	7.4385	273.23	367.51	114.19	823.34	24.493	35.867	838.81	4.5835	-144.61	155.97	321.98	329.71	1338.5	273.84	288.97	928.98	143.63	108.79	944.18	228.37	470.04	384.53	210.15	231.17	1558.3	212.04	99.465	945.06	332.99	412.46	463.7	147.66	96.997	1114.4	292.59	479.63	932.48	538.67	413.66	1578.6	237.74	474.41	199.28	223.78	83.961	775.2	-20.525	285.46	736.25	100.47	470.45	291.35	217.2	414.43	1587.4	318.53	581.2	41.563	274.09	373.89	29.3	246.95	-36.645	24.563	328.93	448.8	92.421	284.64	217.13	1036.6	510.59	555.69	32.742	189.45	-172.05	157.15	409.28	418.19	69.983	200.2	445	286.01	150.11	624.09	47.272	257.72	129.01	1209.8	45.69	-239.99	148.82	367.81
364	1.82	236.3	1563.9	349.46	204.33	1424.1	294.46	277.88	916.17	449.78	279.24	1385.8	437.59	260.77	1208.6	542.74	247.52	1084.2	596.16	366.51	987.2	598.6	437.28	882.78	579.04	505.26	872.41	575.11	101.55	944.64	-3.4355	234.37	619.81	448.67	146.3	538.61	464.39	138.23	1336.5	402.14	398.36	683.97	138.75	71.103	1094.1	126.62	110.63	440.59	449.94	79.291	341.05	367.79	-52.986	205.03	367.08	376.03	570.54	126.6	189.07	721.96	486.27	168.1	628.79	478.42	-84.554	40.554	311.41	-104.99	36.792	399.09	78.547	1093.8	47.089	6.2427	279.1	441.99	335.37	649.23	107.78	221.54	1398.1	117.81	16.463	273.58	368.64	121.72	823.55	24.046	43.351	838.75	4.345	-137.49	159.13	323.01	336.97	1339	273.28	295.95	930.33	143.36	116	944.49	228.28	475.9	383.92	209.83	238.17	1558.7	210.92	106.11	945.5	332.81	419.05	464.11	148.01	103.79	1115.1	292.47	483.72	930.8	538.55	420.95	1579.4	236.49	476.95	198.8	223.86	91.393	775.09	-20.967	292.08	736.77	99.642	474.79	290.82	217.05	421.39	1588.4	317.25	582.12	40.255	274.64	374.04	29.532	246.79	-37.001	24.319	330.23	449.35	92.399	285.03	222.52	1037.7	509.56	556.48	32.499	189.25	-165.88	161.3	409.72	419.19	70.096	200.3	448.94	285.6	149.98	625.38	44.447	258.12	136.76	1209.7	45.162	-232.86	155.5	367.81
365	1.825	243.28	1564.8	348.56	211.44	1424.9	293.82	283.94	916.72	449.62	286.63	1386.6	436.95	267.25	1209.4	542.12	253.1	1085	595.51	371.04	986.57	598.1	440.54	880.97	578.62	508.37	870.23	574.88	109.28	944.74	-3.7917	243.74	620.2	448.36	156.58	537.34	464.22	145.53	1337.5	401.68	405.1	685.26	138.31	78.784	1094.1	126.09	121.76	439.52	450.6	90.225	340.09	368.89	-44.967	206.21	368.35	383.7	571.58	126.24	196.8	721.51	485.71	177.23	628.14	478.07	-83.017	41.06	311.5	-103.05	38.23	398.86	86.305	1094	46.905	15.171	280	442.86	342.36	650.05	107.72	228.72	1398.7	117.27	25.839	273.66	369.79	129.33	823.5	23.876	51.159	838.88	3.9187	-129.5	162.02	323.95	343.94	1339.5	272.92	302.96	931.79	143.08	122.9	945.06	228.26	481.54	383.38	209.68	245.25	1558.9	209.74	112.82	945.86	332.4	424.92	464.61	148.38	110.68	1115.9	292.46	487.51	928.77	538.37	427.99	1579.7	235.21	479.35	198.22	224.29	99.183	775.43	-21.348	298.65	737.2	98.904	479.08	290.48	217.02	428.59	1589.1	316.01	582.64	39.573	275.24	374.2	29.675	246.8	-36.933	24.375	330.92	449.71	92.48	285.54	227.95	1038.8	508.71	556.97	32.366	189.22	-158.63	165.46	410.38	420.04	70.337	200.61	452.52	285.31	150.14	626.66	42.731	259.75	144.35	1209.9	44.649	-225.08	161.95	367.87
366	1.83	250.45	1565.6	347.48	218.41	1425.8	293.33	290.41	917.57	448.65	293.77	1387.5	436.31	273.84	1210.2	541.66	258.19	1085.7	594.35	375.49	986.04	597.59	443.48	879.3	578.28	511.33	868.07	575.46	117.39	945	-4.2473	253.03	620.39	448.32	167.2	536.09	464.26	152.75	1338.8	401.29	411.92	686.14	137.9	86.878	1094.6	125.5	133.28	438.83	451.13	101.36	339.13	369.89	-35.948	207.17	369.82	390.83	572.4	125.95	204.59	721.3	484.79	186.7	627.52	477.54	-81.586	41.579	311.7	-100.61	39.542	398.78	94.302	1094.2	46.577	24.464	281.11	443.44	349.19	650.52	107.94	235.86	1399	116.61	35.8	273.57	370.72	137.23	823.59	23.705	59.243	839.27	3.5567	-120.96	164.83	324.87	350.83	1340.4	272.58	309.87	933.23	142.68	129.82	946.06	227.92	486.84	382.75	209.53	252.02	1559.4	208.89	119.47	946.23	332.02	430.37	464.78	148.72	117.16	1116.7	292.3	491.5	926.75	538.1	435.17	1580.4	234.03	481.67	197.78	224.76	107.17	775.71	-21.899	305.13	737.63	98.551	482.85	290.08	217.25	435.74	1589.9	314.71	583.19	38.769	276	374.38	29.804	246.95	-36.372	24.376	331.6	450.02	92.499	286.13	233.33	1040	507.63	557.26	32.178	189.19	-150.61	169.23	410.69	420.79	70.707	201.02	455.74	285.04	150.54	627.81	41.18	261.07	152.08	1210.2	44.204	-216.55	168.23	368.18
